Coordinates
version=1
nRows=8
nColumns=63
inDegrees=yes

Units are S.I. units (second, meters, Newtons, ...)
If the header above contains a line with 'inDegrees', this indicates whether rotational values are in degrees (yes) or radians (no).

endheader
time	pelvis_tilt	pelvis_list	pelvis_rotation	pelvis_tx	pelvis_ty	pelvis_tz	hip_flexion_r	hip_adduction_r	hip_rotation_r	knee_angle_r	knee_angle_r_beta	ankle_angle_r	subtalar_angle_r	mtp_angle_r	hip_flexion_l	hip_adduction_l	hip_rotation_l	knee_angle_l	knee_angle_l_beta	ankle_angle_l	subtalar_angle_l	mtp_angle_l	L5_S1_Flex_Ext	L5_S1_Lat_Bending	L5_S1_axial_rotation	L4_L5_Flex_Ext	L4_L5_Lat_Bending	L4_L5_axial_rotation	L3_L4_Flex_Ext	L3_L4_Lat_Bending	L3_L4_axial_rotation	L2_L3_Flex_Ext	L2_L3_Lat_Bending	L2_L3_axial_rotation	L1_L2_Flex_Ext	L1_L2_Lat_Bending	L1_L2_axial_rotation	L1_T12_Flex_Ext	L1_T12_Lat_Bending	L1_T12_axial_rotation	Abs_r3	Abs_r2	Abs_r1	Abs_t1	Abs_t2	neck_flexion	neck_bending	neck_rotation	arm_flex_r	arm_add_r	arm_rot_r	elbow_flex_r	pro_sup_r	wrist_flex_r	wrist_dev_r	arm_flex_l	arm_add_l	arm_rot_l	elbow_flex_l	pro_sup_l	wrist_flex_l	wrist_dev_l
      2.16949153	     -0.81800163	     -4.69384355	     94.62756971	      0.18317385	      1.03083787	      0.43021054	      0.76924420	     -1.60298870	    -21.13967787	     12.36476426	      0.21580585	     28.82296278	      8.71368734	      0.00000000	     -0.00754798	      0.55063925	     -7.62312123	      5.45900175	      0.09527755	     26.33192056	      9.50134546	      0.00000000	      0.30361301	      0.26541248	     -1.59736336	      0.56383971	      0.35299860	     -1.69719857	      0.49880581	      0.64532390	     -1.69719857	      0.34699930	      0.64532390	     -1.39769294	      0.28193504	      0.54122913	     -1.29785773	      0.17348447	      0.41112393	     -1.19802252	      2.16867734	      3.00239906	     -8.88405580	      0.00000000	      0.00000000	     24.69010103	      4.82530991	      5.95594775	     10.00960804	     -4.81339450	     48.04246557	     41.94155118	     59.90311837	      7.95280184	     19.70199768	     13.49892538	     -5.35635986	     59.60738036	     41.68412942	     88.76212759	      8.40127863	     15.18617885
      2.18644068	     -0.83945287	     -4.59516683	     94.58431497	      0.18339126	      1.03100704	      0.42999054	      0.64445080	     -1.54583285	    -20.58402368	     12.31211180	      0.21488689	     28.72056040	      7.99011492	      0.00000000	     -0.16486912	      0.56595615	     -7.48354026	      5.32504304	      0.09293953	     26.36165106	      9.33251659	      0.00000000	      0.29763608	      0.26187968	     -1.57812376	      0.55273996	      0.34829997	     -1.67675650	      0.48898631	      0.63673425	     -1.67675650	      0.34016827	      0.63673425	     -1.38085829	      0.27638486	      0.53402504	     -1.28222556	      0.17006926	      0.40565162	     -1.18359282	      2.12598475	      2.96243530	     -8.77705092	      0.00000000	      0.00000000	     24.72710311	      4.50106879	      5.84165663	     10.09339508	     -4.91266491	     48.66242915	     41.89105584	     59.32547575	      7.70451336	     19.43794882	     13.42340730	     -5.48296016	     59.98696451	     41.73704069	     88.73121692	      7.68753810	     14.13971907
      2.20338983	     -0.82826260	     -4.45066264	     94.64093914	      0.18347981	      1.03131236	      0.42976792	      0.47129224	     -1.42385737	    -19.84166881	     12.20000218	      0.21293021	     28.53141080	      6.90202253	      0.00000000	     -0.35872360	      0.55626922	     -6.93197121	      5.22876574	      0.09125918	     26.23737342	      8.58859245	      0.00000000	      0.28406830	      0.26209783	     -1.57238697	      0.52754325	      0.34859011	     -1.67066115	      0.46669582	      0.63726466	     -1.67066115	      0.32466166	      0.63726466	     -1.37583860	      0.26378583	      0.53446989	     -1.27756441	      0.16231663	      0.40598954	     -1.17929023	      2.02907148	      2.96490307	     -8.74514460	      0.00000000	      0.00000000	     24.48656343	      4.25794060	      5.76373581	     10.26166859	     -5.05612099	     49.59170421	     41.74666708	     58.42113272	      7.43459813	     19.14746414	     13.53680153	     -5.54556221	     60.86188918	     41.59084942	     88.73505678	      6.91812127	     13.00714665
      2.22033898	     -0.78122341	     -4.45129733	     95.27684697	      0.18282564	      1.03141077	      0.42945929	      0.34239152	     -1.47765126	    -21.55111773	     12.09651164	      0.21112396	     28.70606038	      8.37700469	      0.00000000	     -0.31701129	      0.48654759	     -6.29340584	      5.24989229	      0.09162791	     26.17622474	      8.49584430	      0.00000000	      0.29494474	      0.26619376	     -1.64981160	      0.54774188	      0.35403770	     -1.75292482	      0.48456471	      0.64722351	     -1.75292482	      0.33709234	      0.64722351	     -1.44358515	      0.27388569	      0.54282232	     -1.34047192	      0.16853142	      0.41233414	     -1.23735870	      2.10676079	      3.01123708	     -9.17575717	      0.00000000	      0.00000000	     24.02488302	      4.00138908	      5.75434309	      9.73483334	     -4.87486873	     47.92698869	     41.73264060	     60.28095611	      8.19676193	     20.26879201	     13.76510587	     -5.50175214	     61.92075961	     41.25199932	     88.75478826	      6.99370316	     11.93278508
      2.23728814	     -0.72478087	     -4.34031948	     95.56295237	      0.18264425	      1.03169899	      0.42910573	      0.18150696	     -1.36726213	    -21.42890868	     11.92930096	      0.20820558	     28.52415195	      7.85459895	      0.00000000	     -0.43951231	      0.41129300	     -5.89493853	      5.23539227	      0.09137483	     26.08074638	      8.20283048	      0.00000000	      0.28603260	      0.26861639	     -1.67569539	      0.53119115	      0.35725979	     -1.78042635	      0.46992297	      0.65311388	     -1.78042635	      0.32690666	      0.65311388	     -1.46623346	      0.26560988	      0.54776253	     -1.36150250	      0.16343903	      0.41608678	     -1.25677154	      2.04310229	      3.03864228	     -9.31971503	      0.00000000	      0.00000000	     23.37039008	      3.98857861	      5.56312734	      9.68718272	     -4.92414062	     48.11856814	     41.59219244	     60.22656977	      8.32237844	     20.49355500	     14.20532193	     -5.44066816	     63.41742895	     40.97000208	     88.79825738	      6.95129730	     11.91119859
      2.25423729	     -0.54013246	     -4.20265323	     95.72782516	      0.18286617	      1.03201193	      0.42869668	      0.02989681	     -1.02038750	    -20.39434030	     11.70391629	      0.20427187	     28.15247874	      6.31530672	      0.00000000	     -0.59587480	      0.17616347	     -5.61061406	      5.19425493	      0.09065685	     26.05889673	      8.01683542	      0.00000000	      0.27295711	      0.28284048	     -1.70828731	      0.50690865	      0.37617783	     -1.81505527	      0.44844124	      0.68769833	     -1.81505527	      0.31196268	      0.68769833	     -1.49475140	      0.25346798	      0.57676830	     -1.38798344	      0.15596769	      0.43811990	     -1.28121548	      1.94970536	      3.19954804	     -9.50098154	      0.00000000	      0.00000000	     22.60630444	      4.18225005	      5.43794830	      9.87281282	     -5.01521661	     49.23846697	     41.29599831	     59.35729295	      8.10832236	     20.11196182	     14.45123473	     -5.37211085	     64.44761422	     40.65307366	     88.86068894	      6.50714450	     11.51768283
      2.27118644	     -0.44913397	     -4.16671378	     96.15897092	      0.18263201	      1.03213358	      0.42858814	     -0.02078277	     -0.85783389	    -20.26150385	     11.57366963	      0.20199864	     28.00119936	      5.60875316	      0.00000000	     -0.53435436	      0.04632574	     -5.26021169	      5.33338419	      0.09308511	     26.11285541	      8.09216741	      0.00000000	      0.27400392	      0.28653157	     -1.74560531	      0.50885267	      0.38108698	     -1.85470564	      0.45016103	      0.69667285	     -1.85470564	      0.31315908	      0.69667285	     -1.52740464	      0.25444004	      0.58429517	     -1.41830431	      0.15656584	      0.44383740	     -1.30920398	      1.95718257	      3.24130238	     -9.70853303	      0.00000000	      0.00000000	     22.06769356	      4.36126974	      5.36707113	      9.72429231	     -4.99655547	     49.06240751	     41.13813850	     59.23501225	      8.22061130	     20.38778828	     15.18940619	     -5.14132137	     66.07649472	     40.23018467	     88.88018498	      7.97421469	     12.76109156
      2.28813559	     -0.34198933	     -4.06992428	     96.37031609	      0.18253126	      1.03232472	      0.42830433	     -0.14779954	     -0.65485242	    -19.79884313	     11.39624345	      0.19890197	     27.92414609	      4.90412548	      0.00000000	     -0.65082420	     -0.08494133	     -4.95330671	      5.27256043	      0.09202354	     26.10738125	      8.03590201	      0.00000000	      0.26374781	      0.29459431	     -1.78277902	      0.48980606	      0.39181044	     -1.89420271	      0.43331128	      0.71627661	     -1.89420271	      0.30143737	      0.71627661	     -1.55993164	      0.24491622	      0.60073672	     -1.44850795	      0.15070550	      0.45632659	     -1.33708426	      1.88392423	      3.33250978	     -9.91528207	      0.00000000	      0.00000000	     21.79012264	      4.40558491	      5.15526289	      9.78831492	     -5.08819621	     49.77784478	     40.97814579	     58.68231066	      7.95934072	     19.81569633	     15.35898250	     -5.02616109	     66.68859585	     39.93649496	     88.89558362	      7.67458168	     12.40526857
